<svg width="20" height="20" fill="none" xmlns="http://www.w3.org/2000/svg"><path fill-rule="evenodd" clip-rule="evenodd" d="M16 4.133H4a.533.533 0 00-.533.534v10.666c0 .295.238.534.533.534h12a.533.533 0 00.533-.534V4.667A.533.533 0 0016 4.133zm-12-.8c-.736 0-1.333.597-1.333 1.334v10.666c0 .737.597 1.334 1.333 1.334h12c.736 0 1.333-.597 1.333-1.334V4.667c0-.737-.597-1.334-1.333-1.334H4z" fill="#ACACAC"/><path d="M6 13.678h.786V11.67c0-.369.18-.5.417-.5.233 0 .417.131.417.5v2.008h.786V11.67c0-.369.185-.5.417-.5.238 0 .418.131.418.5v2.008h.786V11.67c0-.849-.495-1.227-1.136-1.227-.383 0-.689.15-.878.436-.189-.286-.495-.436-.878-.436-.64 0-1.135.378-1.135 1.227v2.008zM12.312 13.741c.99 0 1.688-.698 1.688-1.649 0-.95-.699-1.65-1.688-1.65-.99 0-1.688.7-1.688 1.65s.698 1.65 1.688 1.65zm0-.727c-.539 0-.893-.388-.893-.922s.354-.922.893-.922c.538 0 .892.388.892.922s-.354.922-.892.922zM6 9.236h.786V7.227c0-.368.18-.5.417-.5.233 0 .417.132.417.5v2.009h.786V7.227c0-.368.185-.5.417-.5.238 0 .418.132.418.5v2.009h.786V7.227C10.027 6.378 9.532 6 8.89 6c-.383 0-.689.15-.878.437C7.824 6.15 7.518 6 7.135 6 6.495 6 6 6.378 6 7.227v2.009zM12.312 9.299c.99 0 1.688-.699 1.688-1.65C14 6.7 13.301 6 12.312 6c-.99 0-1.688.699-1.688 1.65 0 .95.698 1.649 1.688 1.649zm0-.728c-.539 0-.893-.388-.893-.922 0-.533.354-.921.893-.921.538 0 .892.388.892.921 0 .534-.354.922-.892.922z" fill="#ACACAC"/></svg>