<svg width="30" height="30" viewBox="0 0 30 30" fill="none" xmlns="http://www.w3.org/2000/svg">
    <path
        d="M23.994 9.18064H22.1129V6.36634C22.1129 6.05038 22.1129 5.56541 21.7675 5.24944C21.5544 5.05839 21.2679 4.97022 20.9078 5.00696L6.21176 6.32225C4.72745 6.45452 4 7.23341 4 8.70301V23.0243C4 24.2147 4.96994 25.1846 6.16032 25.1846H23.8323C25.0301 25.1846 26 24.2147 26 23.017V11.1866C26 10.0771 25.0962 9.18064 23.994 9.18064ZM24.8243 23.0096C24.8243 23.5607 24.3761 24.0016 23.8323 24.0016H6.16032C5.61657 24.0016 5.17568 23.5607 5.17568 23.017V8.70301C5.17568 7.74777 5.51369 7.56407 6.31463 7.49794L20.9225 6.18999C20.9225 6.23408 20.9299 6.29286 20.9299 6.37369V9.18798H6.90247V10.3637H23.994C24.4496 10.3637 24.8243 10.7384 24.8243 11.194V23.0096Z"
        fill="white" />
    <path
        d="M14.853 16.3453C13.4202 15.853 12.7441 15.2137 12.7588 14.332C12.8176 13.3547 13.7288 12.6419 14.9412 12.6199C15.7789 12.6346 16.7121 12.8403 17.6159 13.4429C17.66 13.4723 17.7041 13.487 17.7408 13.487C17.7849 13.487 17.829 13.4576 17.8657 13.4061C17.9465 13.2739 18.1596 12.9505 18.2258 12.833C18.2699 12.7595 18.2846 12.6566 18.1596 12.5685C17.9906 12.4435 17.5057 12.1864 17.2485 12.0761C16.5504 11.7822 15.7642 11.5985 14.9339 11.5985C14.9265 11.5985 14.9265 11.5985 14.9192 11.5985C13.1483 11.6059 11.7595 12.7228 11.6419 14.2218C11.5685 15.3019 12.0975 16.1763 13.2438 16.845C13.4863 16.9846 14.8016 17.5063 15.3233 17.6753C16.9693 18.1897 17.8216 19.1082 17.6232 20.1737C17.4395 21.1436 16.4182 21.7682 15.0147 21.7902C13.8978 21.7461 12.8911 21.2906 12.1122 20.688C12.0902 20.6733 11.9946 20.5998 11.9799 20.5852C11.9359 20.5484 11.8918 20.5337 11.8477 20.5337C11.7962 20.5337 11.7522 20.5558 11.7154 20.6145C11.6713 20.688 11.3701 21.1216 11.2892 21.2318C11.2157 21.3346 11.2525 21.3861 11.3333 21.4522C11.6566 21.7241 12.0902 22.018 12.3841 22.1723C13.1924 22.5838 14.0741 22.8116 15.0073 22.8483C15.0808 22.8557 15.1543 22.8557 15.2351 22.8557C15.7936 22.8557 16.4328 22.7308 16.9325 22.5177C17.9465 22.0841 18.6005 21.2244 18.7328 20.1516C18.9385 18.3954 17.8143 17.2859 14.853 16.3453Z"
        fill="white" />
</svg>
