<svg width="20" height="20" fill="none" xmlns="http://www.w3.org/2000/svg"><path d="M16.707 6.782h-.69v-.806c0-.714-.582-1.31-1.293-1.31H3.293C2.582 4.667 2 5.263 2 5.977v5.983c0 .714.579 1.296 1.293 1.303h.69v.806c0 .714.582 1.31 1.293 1.31h11.431c.711 0 1.293-.596 1.293-1.31V8.085a1.3 1.3 0 00-1.293-1.303zM3.293 12.601a.64.64 0 01-.632-.642V5.976c0-.35.284-.648.632-.648h11.431c.347 0 .631.297.631.648v5.983c0 .35-.28.635-.631.642H3.293zm14.046 1.467c0 .35-.284.648-.632.648H5.276a.646.646 0 01-.631-.648v-.806h10.079a1.3 1.3 0 001.293-1.303V7.444h.69a.64.64 0 01.632.64v5.984z" fill="#fff"/><path d="M10.185 9.463a1.21 1.21 0 00-1.173-.915.546.546 0 01-.014-1.091h.01c.301 0 .546.244.546.545 0 .182.148.33.33.33a.335.335 0 00.338-.33 1.203 1.203 0 00-.916-1.173v-.1a.332.332 0 00-.33-.33.332.332 0 00-.331.33v.126a1.208 1.208 0 00-.78 1.517 1.2 1.2 0 001.147.837.546.546 0 11-.55.545.332.332 0 00-.33-.33.324.324 0 00-.324.324v.006c-.003.526.337.989.837 1.147v.16c0 .18.148.33.33.33.182 0 .33-.15.33-.33v-.133a1.207 1.207 0 00.88-1.465z" fill="#fff"/></svg>