<svg width="20" height="20" fill="none" xmlns="http://www.w3.org/2000/svg"><path d="M10.735 7.344a.323.323 0 00-.242-.097c-.144 0-.248.069-.315.207a.72.72 0 00-.576-.248.953.953 0 00-.74.339 1.205 1.205 0 00-.298.826c0 .325.1.601.299.827a.95.95 0 00.739.339.72.72 0 00.576-.248c.065.138.17.207.315.207a.33.33 0 00.337-.335V7.584a.34.34 0 00-.095-.24zm-.701 1.417a.403.403 0 01-.337.158.4.4 0 01-.337-.158.622.622 0 01-.122-.392c0-.156.04-.286.122-.392a.403.403 0 01.337-.158.4.4 0 01.337.158.622.622 0 01.122.392.598.598 0 01-.122.392zM11.59 9.397a.323.323 0 01-.242.097.33.33 0 01-.337-.335V6.335A.33.33 0 0111.348 6a.33.33 0 01.337.335v2.824a.33.33 0 01-.096.238zM13.814 7.545a1.088 1.088 0 00-.822-.339c-.333 0-.605.112-.816.335-.211.223-.317.5-.317.83 0 .331.106.607.317.83.211.224.483.336.816.336.333 0 .607-.114.822-.34a1.16 1.16 0 00.31-.826 1.175 1.175 0 00-.31-.826zm-.485 1.216a.403.403 0 01-.337.158.4.4 0 01-.337-.158.622.622 0 01-.122-.392c0-.156.04-.286.122-.392a.403.403 0 01.337-.158.4.4 0 01.337.158.622.622 0 01.122.392c0 .157-.04.287-.122.392z" fill="#ACACAC"/><path d="M8.193 7.283c.237-.306.355-.512.355-.62 0-.245-.154-.367-.463-.367h-1.63a.435.435 0 00-.297.092.296.296 0 00-.105.235c0 .098.034.175.105.236.071.06.169.091.297.091h1.118l-1.43 1.852c-.094.122-.141.23-.141.323 0 .27.179.404.534.404h1.681c.268 0 .402-.114.402-.34 0-.225-.134-.339-.402-.339H6.981l1.212-1.567zM7.39 11.273h-.418v.868h.419c.126 0 .227-.04.306-.123a.44.44 0 00.118-.313.434.434 0 00-.118-.313.414.414 0 00-.306-.12zM9.48 12.09a.374.374 0 00-.313.147.578.578 0 00-.114.361c0 .144.039.264.114.362.075.097.18.146.313.146a.374.374 0 00.312-.146.578.578 0 00.114-.362.574.574 0 00-.114-.361.377.377 0 00-.312-.146z" fill="#ACACAC"/><path d="M12.436 10.03H6.367a.367.367 0 00-.367.368v3.554c0 .203.164.368.367.368h4.79a.224.224 0 01-.075-.169.45.45 0 01.034-.164l.226-.502-.624-1.563a.383.383 0 01-.028-.146.21.21 0 01.087-.173.283.283 0 01.18-.07c.139 0 .234.066.283.2l.39 1.064.416-1.064c.053-.134.146-.2.282-.2.063 0 .124.024.18.07a.22.22 0 01.088.173c0 .053-.01.101-.028.146l-.924 2.248a.45.45 0 01-.091.148h.883a.367.367 0 00.367-.368v-3.555a.366.366 0 00-.367-.365zM8.15 12.422a1.03 1.03 0 01-.723.261h-.455v.672c0 .102-.028.181-.085.236a.3.3 0 01-.221.083.308.308 0 01-.221-.083.316.316 0 01-.086-.236v-2.304c0-.213.108-.32.321-.32h.727c.304 0 .554.09.753.271a.917.917 0 01.299.709.924.924 0 01-.309.71zm2.377.907c0 .087-.028.16-.087.22a.294.294 0 01-.223.089c-.132 0-.23-.063-.29-.191a.667.667 0 01-.534.23c-.27 0-.5-.104-.685-.313a1.116 1.116 0 01-.276-.766c0-.3.092-.556.276-.765a.875.875 0 01.684-.313c.226 0 .405.077.534.23.061-.128.159-.191.29-.191a.303.303 0 01.31.309v1.461z" fill="#ACACAC"/><path fill-rule="evenodd" clip-rule="evenodd" d="M16 4.133H4a.533.533 0 00-.533.534v10.666c0 .295.238.534.533.534h12a.533.533 0 00.533-.534V4.667A.533.533 0 0016 4.133zm-12-.8c-.736 0-1.333.597-1.333 1.334v10.666c0 .737.597 1.334 1.333 1.334h12c.736 0 1.333-.597 1.333-1.334V4.667c0-.737-.597-1.334-1.333-1.334H4z" fill="#ACACAC"/></svg>